<?xml version="1.0" encoding="UTF-8"?>
<svg id="katman_2" data-name="katman 2" xmlns="http://www.w3.org/2000/svg" viewBox="0 0 1001.47 436.64">
  <defs>
    <style>
      .cls-1 {
        fill: #19213d;
      }

      .cls-2 {
        fill: #5d9331;
      }

      .cls-3 {
        fill: #ec6919;
      }

      .cls-4 {
        fill: #509e34;
      }

      .cls-5 {
        fill: #ec6316;
      }

      .cls-6 {
        fill: #1a3863;
      }

      .cls-7 {
        fill: #27406a;
      }

      .cls-8 {
        fill: #1a213e;
      }

      .cls-9 {
        fill: #181f39;
      }

      .cls-10 {
        fill: #10878e;
      }
    </style>
  </defs>
  <g id="katman_1" data-name="katman 1">
    <g>
      <g>
        <g>
          <path class="cls-10" d="M220.58,436.64c-14.31-.13-25.32-11.56-25.12-26.09,.19-13.88,11.37-24.99,24.95-24.81,14.88,.2,26.69,11.7,26.43,25.72-.27,14.18-11.87,25.31-26.25,25.18Z"/>
          <path class="cls-10" d="M310.77,319.89c-16,24.29-36.97,42.91-63.6,54.73-3.88,1.72-9.3,1.91-13.46,.79-21.34-5.75-41.31,4.12-48,24.9-1.63,5.05-4.19,5.75-8.48,4.61-65.92-17.55-111.53-57.59-134.89-122.11-2.66-7.35-4.56-14.98-5.46-23.3,2.3,2.75,4.67,5.45,6.9,8.25,36.13,45.48,82.67,73.98,139.84,84.13,46.37,8.23,88.72-1.24,125.35-32.07,.32-.27,.78-.39,1.2-.49,.12-.03,.31,.28,.59,.55Z"/>
          <path class="cls-6" d="M117.95,309.62c-3.32-2.4-6.77-4.65-9.95-7.22-19.3-15.56-34.78-34.07-43.09-57.75-1.2-3.4-1.19-8.07,.15-11.39,9.33-23.03-3.67-49.51-27.9-55.38-4.44-1.08-5.4-2.67-4.29-6.93,10.37-39.9,32.51-71.97,64.65-97.35,21.22-16.76,45.33-27.62,71.47-34.12,3.21-.8,6.46-1.43,10.36-.72-3.22,2.28-6.52,4.46-9.66,6.84-56.46,42.9-86.58,99.31-85.86,170.72,.33,33.3,12.3,62.98,33.08,89.04,.77,.96,1.38,2.04,2.06,3.07-.34,.4-.67,.8-1.01,1.2Z"/>
          <path class="cls-2" d="M401.78,174.22c-11.41-11.85-22.17-24.98-34.86-35.86-45.56-39.09-98.3-57.88-158.62-51.77-29.68,3.01-56.05,14.72-78.51,34.69-.59,.53-1.3,.92-2.27,1.01,11.31-17.64,25.58-32.35,43.53-43.12,8.28-4.97,17.18-8.93,25.97-12.96,2.52-1.15,5.74-1.55,8.52-1.25,29.49,3.21,40.17-2.6,52.21-28.78,66.4,9.6,130.35,65.04,144.02,138.04Z"/>
          <path class="cls-5" d="M264.75,401.77c7.95-6.83,16.21-13.35,23.8-20.56,36.45-34.62,57.31-77.26,65.47-126.67,5.1-30.92,1.92-60.64-10.64-89.2-4.2-9.56-10.17-18.35-15.94-28.56,2.21,1.07,3.87,1.5,5.03,2.5,16.28,14,28.67,31.07,37.84,50.3,2.21,4.64,2.12,11,1.32,16.31-2.49,16.49,.24,31.12,13.44,42.28,3.86,3.26,8.65,5.82,13.44,7.47,4.97,1.71,5.22,4.33,4.4,8.7-4.99,26.39-16.01,50.09-31.92,71.55-22.73,30.64-52.78,51.12-88.88,62.92-5.54,1.81-11.3,2.96-16.96,4.42-.13-.48-.26-.97-.4-1.45Z"/>
          <path class="cls-6" d="M57.51,217.64c.02,15.95-12.9,28.84-28.8,28.75C12.76,246.3,0,233.43,0,217.45c0-16.06,12.73-29.36,28.24-29.53,16.61-.18,29.25,12.66,29.27,29.72Z"/>
          <path class="cls-5" d="M437.65,218.53c.06,15.03-12,27.14-26.89,27-15.51-.15-27.99-12.47-28.2-27.85-.22-15.73,11.83-28.21,27.35-28.31,16.34-.11,27.67,11.8,27.74,29.16Z"/>
          <path class="cls-2" d="M192.93,26.25C192.95,11.79,205.09,.03,220.05,0c14.56-.03,26.71,12.06,26.81,26.68,.1,15.11-12.65,28.13-27.29,27.86-15.25-.28-26.67-12.4-26.64-28.29Z"/>
        </g>
        <g>
          <path class="cls-7" d="M136.77,215.53c.7-46.18,35.87-81.93,80.77-82.58,47.03-.69,83.16,35.4,83.34,82.3,.18,46.5-36.78,81.85-79.68,83.02-43.34,1.18-83.96-32.76-84.43-82.74Zm82.25,78.53c43.48-.08,78.38-35.41,77.8-79.71-.55-41.64-32.28-76.73-76.77-77.21-44.57-.48-78.53,34.67-78.94,77.71-.43,44.2,34.52,79.29,77.92,79.2Z"/>
          <path class="cls-7" d="M272.09,214.81c5.07-1.38,9.44-3.68,11.97-8.65,.78-1.53,.71-2.45-.81-3.31-.59-.34-.99-1-1.56-1.59-.56,.51-1.12,1.02-2.11,1.91-1.55-1.91-3.01-3.72-4.47-5.52,.23-.26,.45-.53,.68-.79,.52,.27,1.27,.41,1.52,.84,1.9,3.23,5.38,3.31,8.25,3.39,2.94,.09,5,.27,5.87,3.41,.09,.31,.94,.42,1.63,.7,5.09,24.27-6.59,59.75-38.78,77.29-30.13,16.41-68.18,9.68-91.21-16.13-23.68-26.54-23.95-62.51-9.42-86.2-1.12,3.13-2.17,6.29-3.39,9.39-1.94,4.92-2.47,9.89-.75,14.97,.13,.4,.39,.75,.94,1.03-.35-2.54-.71-5.09-1.06-7.63,.19-.03,.39-.07,.58-.1,.82,3.61,1.1,7.47,2.67,10.72,.91,1.89,3.78,3.03,5.97,4.07,2.95,1.4,6.44,1.81,8.09,5.21,1.01,2.09,3.51,3.17,5.41,2.31,1.41,1.94,1.7,3.7-.06,5.76-2.38,2.79-2.3,5.55-.26,8.6,.75,1.12,1.11,2.51,1.92,3.57,1.27,1.66,2.84,3.09,4.13,4.74,.94,1.21,2.23,2.59,2.29,3.94,.23,4.84-.34,9.73,.07,14.55,.36,4.18,1.32,8.38,2.64,12.37,.61,1.86,2.61,3.32,4.1,4.83,1.52,1.54,3.31,1.63,5.16,.5-5.15-2.7-5.04-3.91-3.03-7.34-.71-.45-1.43-.9-1.84-1.16,.41-1.68,.76-3.14,1.12-4.6-.27-.09-.54-.18-.81-.27,1.75-1,3.63-1.85,5.16-3.12,.43-.36-.18-1.97-.31-2.96,2.28,.08,6.02-3.24,5.97-6.22-.04-2.24,1.13-3.13,2.76-3.77,3.21-1.25,4.43-3.14,4.6-6.5,.08-1.57,.57-3.37,1.5-4.6,3.21-4.23,2.18-6.96-3.1-8.07-2.42-.51-4.74-1.51-7.09-2.34-.19-.07-.29-.5-.35-.78-.54-2.55-1.59-4.46-4.62-4.68-2.07-.15-4.7-2.91-4.87-4.1-2.67-.67-5.06-1.26-7.46-1.86-1.9-.48-3.64-.11-4.72,1.54-1.54,2.36-3.63,.45-5.38,.92-.32-1.27-1.18-2.71-.86-3.78,1.2-4-2.3-2.04-3.68-3.1,.53-1.45,1.07-2.93,1.95-5.32-1.52,.73-2.48,1.19-3.44,1.65-1.04,.5-2.32,1.6-3.08,1.31-.86-.32-1.83-1.94-1.73-2.89,.26-2.62,.35-5.7,3.33-6.87,1.94-.76,4.18-1.01,6.29-1.05,1.51-.03,2.98,.64,2.7,2.82-.09,.71,.38,1.49,.59,2.24,.28,.02,.56,.03,.84,.05,.15-.79,.56-1.63,.41-2.36-.59-2.9,.46-4.77,2.98-6.27,1.09-.65,1.67-2.14,2.47-3.26,.47-.65,.82-1.41,1.39-1.95,2.27-2.12,4.6-4.17,7.09-6.41,.28,.86,.42,1.26,.61,1.86,1.65-.95,3.1-1.79,4.56-2.62-3.29,.27-3.63-.37-3.18-3.47-.76,.03-1.47,.06-2.19,.1-.03-.19-.07-.38-.1-.57,2.74-.56,5.49-1.12,8.49-1.74-.65,1.16-1.27,2.27-1.96,3.51,1.52,.28,2.88,.53,5.11,.94-.89-1.59-1.45-2.58-2.21-3.94,.96-1.8,.51-3.64-1.81-5.12-.59-.37-.74-1.49-1-2.29-.32-.99-.55-2.01-1.03-3.8-.79,1.1-1.14,1.73-1.64,2.22-.27,.26-.97,.5-1.16,.35-.34-.28-.73-.95-.61-1.28,.66-1.74-.46-2.42-1.72-2.69-1.3-.29-2.72-.38-2.98,1.66-.17,1.34-.42,2.76-1.05,3.92-1.22,2.24-2.73,4.31-4.69,6.33,.06-1.15,.11-2.31,.17-3.64-1.36-.6-3.19-.97-4.28-2.07-.66-.66-.67-2.8-.08-3.67,1.07-1.58,2.71-2.84,4.28-3.99,1.65-1.2,3.56-2.04,5.25-3.2,.69-.47,1.24-1.28,1.63-2.05,1.34-2.6,2.15-2.7,4.01-.38,.16,.21,.44,.32,.61,.52,.1,.12,.11,.32,.31,1-1.47,1.01-3.07,2.12-4.27,2.95,1.65,.94,3.47,1.96,4.83,2.73,.93-.51,1.55-.85,2.47-1.36-.27-.74-.64-1.75-1-2.77,.13-.12,.25-.24,.38-.36,.55,.42,1.11,.83,1.99,1.49,.36-.59,.78-1.29,1.29-2.13-.11-.12-.39-.44-.69-.73-.75-.71-1.18-1.31-1.48-2.53-.39-1.6-2.64-3.13-4.43-3.88-1.17-.5-2.94,.42-4.61,.74,.04,.08-.14-.27-.32-.62-.21-.04-.43-.07-.64-.11-.17,.91-.82,2.23-.44,2.67,2.09,2.43-.48,2.7-1.44,3.74-.25-2.12-2.16-4.39,1.17-6.03-.3-.16-.61-.32-.91-.48-.91,.96-1.94,1.83-2.69,2.91-1.43,2.06-2.33,4.43-5.82,3.55-1.52-.38-3.41,.69-5.13,1.11-.1-.24-.2-.48-.3-.73,.83-.76,1.65-1.53,3.04-2.81-.35,1.1-.48,1.49-.64,2.01,3.04-.07,5.98-.14,5.75-4.51-.47,.1-1.15,.24-1.82,.38-.06-.14-.11-.28-.17-.42,2.68-1.65,5.3-3.41,8.06-4.9,.98-.52,2.73-.96,3.4-.46,3.35,2.48,5.58,.26,8.22-1.31,2.82-1.67,5.9-2.9,8.86-4.33,.37-.18,.71-.45,1.59-1.01-2.01,.18-3.4,.3-4.79,.42,14.17-4.35,28.27-4,42.33,.95-.97,.14-1.94,.27-3.28,.46,1.77,2.89,3.7,.4,5.35,.59,.5,.06,1.14-.54,1.55-.39,6.87,2.58,13.26,6.04,19.09,10.62-1.17,.63-2.22,1.2-3.44,1.86-.3-.43-.7-.99-1.1-1.56,1.25,2.71-1.32,3.65-2.32,5.26-1.14-.71-2.29-1.42-3.43-2.13,.1-.2,.21-.4,.31-.61,1.11,.08,2.21,.17,3.32,.25,.11-.35,.21-.69,.32-1.04-1.51-.65-3.04-1.28-4.54-1.97-3.19-1.47-6.35-2.39-9.29,.46-.45,.44-.52,1.24-.87,1.81-1.07,1.74-1.96,3.67-3.35,5.12-2.15,2.25-2.36,2.95-.27,6.13,.8-.52,1.59-1.03,2.85-1.85,.48,1.52,.92,2.9,1.45,4.55,2.97,.22,2.2-3.23,2.93-4.34-.11-1.9-.62-3.93-.18-4.17,1.51-.8,.19-4.13,2.92-3.51-.17,1.92-.94,4-.25,5.33,.43,.84,3.04,.55,4.69,1.2-.9,.25-1.81,.5-2.91,.81,.18,.7,.34,1.32,.57,2.21-.63-.09-1.1-.15-1.58-.22-.87,3.79-2.01,4.4-7.63,4.02-.11-1.01-.22-2.04-.33-3.07-.29-.02-.58-.04-.88-.05-.1,1.13-.2,2.27-.33,3.66-2.55,2.03-5.36,4.27-8.05,6.41,.6,1.11,1.47,2.74,2.73,5.08h-6.65c-.13,1.5-.04,2.71-.36,3.79-.72,2.39,1.15,3.45,2.53,3.57,1.39,.11,3.81-.87,4.19-1.94,1.11-3.1,2.56-5.33,6.02-5.81,.49-.07,.92-.49,1.3-.7,1.37,1.23,2.66,2.3,3.85,3.47,.59,.58,1.01,1.35,1.51,2.03-.62,.45-1.23,.89-1.81,1.31q1.36,1.09,3.47-2.67c-1.64-1.65-3.25-3.28-4.85-4.91,.21-.19,.42-.39,.62-.58,3.85,1.79,5.91,5.21,7.68,8.9,.29,0,.57-.02,.86-.03,.14-1.17,.28-2.34,.49-4.05,.27-.05,1.16-.2,2.11-.36-.42,4.19,1.94,5.48,7.07,4.12,.12,.13,.32,.24,.34,.38,.63,4.72-.26,5.65-5.2,5.34-1.06-.07-2.19-.28-3.15-.73-2.1-1-3.67-1.1-3.96,2.03-2.41-1.17-4.56-2.18-6.67-3.25-.25-.13-.53-.61-.48-.85,.72-3.14-1.31-2.74-3.18-2.46-3.24,.49-6.57,.7-9.64,1.71-1.43,.47-2.94,2.42-3.3,3.96-.41,1.76-1.33,2.72-2.4,3.95-2.01,2.32-4.29,4.68-3.22,8.29,.2,.66,.28,1.54,0,2.14-2.16,4.78,1.88,7.25,3.97,10.27,2.35,3.41,5.85,1.38,8.87,1,1.74-.22,3.62-1.99,4.63,.97,4.22,.16,3.14,2.84,2.66,5.37-.1,.54,.58,1.25,.96,1.85,2.14,3.35,3.73,6.73,1.59,10.76-.47,.89-.71,2.18-.47,3.14,.89,3.56,2.02,7.05,3.07,10.57,.1,.34,.29,.66,.41,1,.41,1.2,.83,3.45,1.2,3.44,2.01-.05,4.43-.09,5.91-1.21,2.04-1.55,3.37-4.04,5-6.13,.41-.53,.82-1.05,1.16-1.62,.43-.72,1.24-1.58,1.1-2.19-.59-2.55,1.07-3.98,2.76-4.71,3.01-1.3,3.4-3.9,2.67-6.04-1.94-5.74,1.18-9.11,4.93-12.29,3.19-2.7,4.24-6.26,5.22-10.56-2.07,.6-3.56,1.14-5.1,1.45-1.44,.28-2.74,.16-1.65-1.9l-.08,.08Zm-40.52-42.17c.51,.31,1.49,.68,1.46,.92-.18,1.35-.59,2.67-.95,4.07,5.78-.98,5.73-.94,2.65-5.55-.82-1.22-1.25-2.69-1.85-4.01-3.32,1.19-.91,3.17-1.26,4.64-.66-.08-1.76-.43-1.91-.2-.66,1.07-1.04,2.31-1.63,3.74,3-.13,3.19-1.91,3.49-3.6Zm-34.73-22.8c.56-.04,1-.04,1.44-.11,2.53-.41,4.06,.27,3.89,3.23-.03,.58,.68,1.21,1,1.74-.47,.35-1.07,.8-1.67,1.25l.38,.58c.56-.23,1.12-.47,1.69-.7-1.38,2.05-3.02,3.7-1.97,6.61,.93,2.57,2.17,4.3,5.1,4.8,.43-.94,.78-1.87,1.27-2.71,.7-1.21,1.23-2.82,2.31-3.43,2.8-1.6,5.9-2.65,8.78-4.11,1.12-.57,2.88-2.35,2.81-2.45-1.58-2.15,.75-3.04,1.29-4.45,.15-.38,.24-.81,.24-1.22,.01-1.08-.41-2.35,.03-3.19,.52-1.01,1.74-1.66,2.75-2.54-1.29-.07-2.89,.33-3.47-.27-1.83-1.87-3.92-1.5-6.01-1.24-3.25,.41-6.5,.88-9.69,1.55-2.17,.46-4.3,1.2-6.36,2.02-1.42,.57-2.69,1.48-4.03,2.26-.14,.08-.23,.24-.37,.4,.19,.64,.39,1.29,.6,1.99Zm79.82,89.04c-.28-.04-.57-.07-.85-.11-.71,.91-1.25,2.32-2.16,2.63-3.82,1.29-2.41,5.14-3.88,7.54-.29,.47,.59,1.64,.92,2.49,.8-.57,1.93-.97,2.34-1.75,1.15-2.22,2.08-4.56,2.92-6.92,.43-1.22,.48-2.58,.71-3.88Zm-49.43-77.86c-1.99-3.03-4.49,.28-6.56-1.15,.87,3.77,2.72,4.06,6.56,1.15Zm-58.28,45.46c2.66,.96,5.15,1.86,7.64,2.76,.08-.27,.17-.54,.25-.82-2.46-1.48-4.71-3.82-7.89-1.95Zm12.73,4.03c-2.47-2.26-2.97-2.2-4.75,.54,1.66-.19,3.06-.35,4.75-.54Z"/>
          <path class="cls-7" d="M264.82,179.75c-.21,.67-.43,1.33-.64,2,1.35,.98,2.61,1.9,4.31,3.13-1.14,.49-1.77,1.02-2.34,.96-2.27-.24-4.52-.87-6.73,.43-.21,.12-1.59-.94-1.61-1.46-.02-1.11,.39-2.28,.83-3.34,.6-1.42,1.52-1.23,2.48-.26,.38,.39,.85,.69,1.27,1.03,.06-.46-.04-1.04,.21-1.34,.5-.61,1.19-1.06,1.8-1.58,.14,.14,.28,.28,.42,.43Z"/>
          <path class="cls-7" d="M272.17,214.74c-2.71-1.67-4.17-4.13-5.2-7.14-.97-2.83-2.67-5.41-4.13-8.27,3.08,1.14,8.05,9.63,9.25,15.48,0,0,.08-.08,.08-.08Z"/>
          <path class="cls-7" d="M278.19,189.38c-2.89,.65-3.79-.14-3.63-2.75,.05-.81-.77-1.78-1.37-2.52-1.91-2.33-1.79-4.27,.41-4.85,.35-.09,.89,0,1.15,.22,.22,.19,.33,.93,.19,1.04-1.81,1.43-.08,2.24,.63,2.96,1.33,1.36,2.51,3.68,2.62,5.9Z"/>
        </g>
      </g>
      <g>
        <g>
          <path class="cls-1" d="M562.56,286.16c-1.22,0-2.34-.22-3.38-.67-1.04-.45-1.94-1.07-2.71-1.86s-1.37-1.72-1.79-2.77c-.42-1.05-.63-2.18-.63-3.38s.21-2.35,.63-3.41c.42-1.05,1.01-1.97,1.78-2.76,.76-.79,1.66-1.4,2.7-1.85,1.04-.45,2.16-.67,3.36-.67,1.35,0,2.52,.23,3.53,.68,1,.45,1.9,1.07,2.68,1.85l-1.58,1.58c-.54-.6-1.19-1.07-1.97-1.41-.78-.34-1.66-.51-2.65-.51-.88,0-1.69,.16-2.43,.47-.75,.32-1.4,.77-1.95,1.35s-.98,1.27-1.28,2.07c-.3,.79-.45,1.66-.45,2.6s.15,1.81,.45,2.6c.3,.79,.73,1.48,1.28,2.07s1.2,1.03,1.95,1.35c.75,.32,1.56,.47,2.46,.47,1.05,0,1.97-.17,2.75-.52s1.44-.82,1.97-1.42l1.58,1.58c-.78,.79-1.69,1.42-2.74,1.87s-2.23,.68-3.54,.68Z"/>
          <path class="cls-1" d="M581.34,286.16c-1.2,0-2.32-.22-3.36-.67-1.04-.45-1.95-1.07-2.72-1.87-.78-.8-1.39-1.73-1.82-2.78s-.66-2.18-.66-3.38,.22-2.35,.66-3.39,1.04-1.97,1.81-2.76,1.67-1.41,2.7-1.85c1.03-.44,2.15-.66,3.34-.66s2.31,.22,3.34,.66c1.03,.44,1.93,1.05,2.71,1.85,.78,.79,1.39,1.72,1.82,2.77,.44,1.05,.66,2.19,.66,3.41s-.22,2.33-.66,3.38-1.04,1.98-1.81,2.77-1.67,1.42-2.7,1.86c-1.03,.45-2.14,.67-3.32,.67Zm-.05-2.19c1.2,0,2.26-.28,3.19-.84s1.65-1.33,2.18-2.31c.53-.98,.79-2.1,.79-3.37,0-.94-.15-1.8-.45-2.59-.3-.79-.73-1.47-1.28-2.06s-1.2-1.03-1.95-1.35c-.75-.32-1.57-.47-2.48-.47-1.2,0-2.26,.28-3.17,.83-.92,.55-1.64,1.31-2.16,2.29-.53,.97-.79,2.09-.79,3.36,0,.94,.15,1.81,.45,2.61,.3,.8,.72,1.49,1.26,2.07,.54,.58,1.19,1.03,1.95,1.35,.75,.32,1.58,.49,2.47,.49Z"/>
          <path class="cls-1" d="M595.66,285.91v-16.88h1.61l.68,2.68v14.21h-2.29Zm11.68,0l-10.36-13.82,.29-3.07,10.39,13.82-.32,3.07Zm0,0l-.68-2.51v-14.38h2.29v16.88h-1.61Z"/>
          <path class="cls-1" d="M619.96,286.16c-1.31,0-2.44-.24-3.38-.73-.94-.49-1.77-1.19-2.5-2.12l1.56-1.56c.53,.75,1.15,1.31,1.85,1.69s1.56,.57,2.58,.57,1.81-.22,2.42-.66,.91-1.04,.91-1.8c0-.63-.15-1.14-.45-1.53-.3-.39-.69-.71-1.18-.96s-1.02-.47-1.61-.67c-.58-.19-1.17-.41-1.75-.64-.58-.23-1.12-.53-1.62-.89s-.89-.82-1.18-1.37c-.29-.56-.44-1.28-.44-2.15,0-.96,.23-1.77,.69-2.45,.46-.67,1.09-1.19,1.9-1.56,.8-.37,1.71-.55,2.71-.55,1.1,0,2.09,.21,2.97,.64,.88,.43,1.59,.99,2.14,1.69l-1.56,1.56c-.5-.58-1.04-1.02-1.62-1.31-.58-.29-1.24-.44-1.98-.44-.91,0-1.63,.2-2.17,.6-.53,.4-.8,.95-.8,1.67,0,.57,.15,1.03,.45,1.37,.3,.35,.69,.64,1.18,.89s1.03,.47,1.62,.67,1.18,.43,1.76,.67c.58,.24,1.12,.55,1.6,.92,.49,.37,.88,.86,1.18,1.45,.3,.59,.45,1.33,.45,2.23,0,1.49-.51,2.66-1.55,3.5-1.03,.84-2.43,1.26-4.2,1.26Z"/>
          <path class="cls-1" d="M638.13,286.16c-1.25,0-2.37-.28-3.36-.85-.99-.57-1.77-1.34-2.35-2.32-.58-.98-.86-2.09-.86-3.32v-10.63h2.31v10.58c0,.89,.19,1.66,.56,2.31,.37,.65,.88,1.15,1.52,1.51,.64,.36,1.37,.54,2.18,.54s1.53-.18,2.15-.54c.62-.36,1.12-.86,1.48-1.51,.36-.65,.55-1.41,.55-2.29v-10.61h2.31v10.65c0,1.23-.28,2.34-.85,3.31s-1.34,1.74-2.31,2.31c-.97,.57-2.08,.85-3.33,.85Z"/>
          <path class="cls-1" d="M651.1,285.91v-16.88h1.61l7.15,11.75h-1.09l7.15-11.75h1.61v16.88h-2.29v-12.87l.51,.15-5.62,9.27h-1.63l-5.62-9.27,.51-.15v12.87h-2.29Z"/>
          <path class="cls-1" d="M674.21,285.91v-16.88h2.29v16.88h-2.29Zm1.56-14.79v-2.09h9.56v2.09h-9.56Zm0,7.18v-2.02h8.88v2.02h-8.88Zm0,7.61v-2.09h9.68v2.09h-9.68Z"/>
          <path class="cls-1" d="M691.26,285.91v-16.88h2.29v16.88h-2.29Zm1.53-7.35v-1.92h4.57c.99,0,1.75-.25,2.27-.75,.53-.5,.79-1.18,.79-2.04,0-.81-.26-1.48-.79-2.02-.53-.53-1.28-.8-2.25-.8h-4.6v-1.99h4.67c1.07,0,2,.21,2.8,.62,.8,.41,1.41,.98,1.84,1.69,.43,.71,.64,1.53,.64,2.46s-.21,1.79-.64,2.51c-.43,.71-1.04,1.27-1.84,1.67-.79,.4-1.73,.6-2.8,.6h-4.67Zm8.2,7.35l-6.13-7.56,2.17-.75,6.86,8.32h-2.9Z"/>
          <path class="cls-1" d="M713.03,286.16c-1.31,0-2.44-.24-3.38-.73-.94-.49-1.77-1.19-2.5-2.12l1.56-1.56c.53,.75,1.15,1.31,1.85,1.69s1.56,.57,2.58,.57,1.81-.22,2.42-.66,.91-1.04,.91-1.8c0-.63-.15-1.14-.45-1.53-.3-.39-.69-.71-1.18-.96s-1.02-.47-1.61-.67c-.58-.19-1.17-.41-1.75-.64-.58-.23-1.12-.53-1.62-.89s-.89-.82-1.18-1.37c-.29-.56-.44-1.28-.44-2.15,0-.96,.23-1.77,.69-2.45,.46-.67,1.09-1.19,1.9-1.56,.8-.37,1.71-.55,2.71-.55,1.1,0,2.09,.21,2.97,.64,.88,.43,1.59,.99,2.14,1.69l-1.56,1.56c-.5-.58-1.04-1.02-1.62-1.31-.58-.29-1.24-.44-1.98-.44-.91,0-1.63,.2-2.17,.6-.53,.4-.8,.95-.8,1.67,0,.57,.15,1.03,.45,1.37,.3,.35,.69,.64,1.18,.89s1.03,.47,1.62,.67,1.18,.43,1.76,.67c.58,.24,1.12,.55,1.6,.92,.49,.37,.88,.86,1.18,1.45,.3,.59,.45,1.33,.45,2.23,0,1.49-.51,2.66-1.55,3.5-1.03,.84-2.43,1.26-4.2,1.26Z"/>
          <path class="cls-1" d="M730.35,285.91l6.93-16.88h1.65l6.88,16.88h-2.48l-5.69-14.28h.88l-5.72,14.28h-2.46Zm3.31-3.82v-1.99h8.88v1.99h-8.88Z"/>
          <path class="cls-1" d="M755.04,286.16c-1.31,0-2.44-.24-3.38-.73-.94-.49-1.77-1.19-2.5-2.12l1.56-1.56c.53,.75,1.15,1.31,1.85,1.69s1.56,.57,2.58,.57,1.81-.22,2.42-.66,.91-1.04,.91-1.8c0-.63-.15-1.14-.45-1.53-.3-.39-.69-.71-1.18-.96s-1.02-.47-1.61-.67c-.58-.19-1.17-.41-1.75-.64-.58-.23-1.12-.53-1.62-.89s-.89-.82-1.18-1.37c-.29-.56-.44-1.28-.44-2.15,0-.96,.23-1.77,.69-2.45,.46-.67,1.09-1.19,1.9-1.56,.8-.37,1.71-.55,2.71-.55,1.1,0,2.09,.21,2.97,.64,.88,.43,1.59,.99,2.14,1.69l-1.56,1.56c-.5-.58-1.04-1.02-1.62-1.31-.58-.29-1.24-.44-1.98-.44-.91,0-1.63,.2-2.17,.6-.53,.4-.8,.95-.8,1.67,0,.57,.15,1.03,.45,1.37,.3,.35,.69,.64,1.18,.89s1.03,.47,1.62,.67,1.18,.43,1.76,.67c.58,.24,1.12,.55,1.6,.92,.49,.37,.88,.86,1.18,1.45,.3,.59,.45,1.33,.45,2.23,0,1.49-.51,2.66-1.55,3.5-1.03,.84-2.43,1.26-4.2,1.26Z"/>
          <path class="cls-1" d="M770.8,286.16c-1.31,0-2.44-.24-3.38-.73-.94-.49-1.77-1.19-2.5-2.12l1.56-1.56c.53,.75,1.15,1.31,1.85,1.69s1.56,.57,2.58,.57,1.81-.22,2.42-.66,.91-1.04,.91-1.8c0-.63-.15-1.14-.45-1.53-.3-.39-.69-.71-1.18-.96s-1.02-.47-1.61-.67c-.58-.19-1.17-.41-1.75-.64-.58-.23-1.12-.53-1.62-.89s-.89-.82-1.18-1.37c-.29-.56-.44-1.28-.44-2.15,0-.96,.23-1.77,.69-2.45,.46-.67,1.09-1.19,1.9-1.56,.8-.37,1.71-.55,2.71-.55,1.1,0,2.09,.21,2.97,.64,.88,.43,1.59,.99,2.14,1.69l-1.56,1.56c-.5-.58-1.04-1.02-1.62-1.31-.58-.29-1.24-.44-1.98-.44-.91,0-1.63,.2-2.17,.6-.53,.4-.8,.95-.8,1.67,0,.57,.15,1.03,.45,1.37,.3,.35,.69,.64,1.18,.89s1.03,.47,1.62,.67,1.18,.43,1.76,.67c.58,.24,1.12,.55,1.6,.92,.49,.37,.88,.86,1.18,1.45,.3,.59,.45,1.33,.45,2.23,0,1.49-.51,2.66-1.55,3.5-1.03,.84-2.43,1.26-4.2,1.26Z"/>
          <path class="cls-1" d="M789.82,286.16c-1.2,0-2.32-.22-3.36-.67-1.04-.45-1.95-1.07-2.72-1.87-.78-.8-1.39-1.73-1.82-2.78s-.66-2.18-.66-3.38,.22-2.35,.66-3.39,1.04-1.97,1.81-2.76,1.67-1.41,2.7-1.85c1.03-.44,2.15-.66,3.34-.66s2.31,.22,3.34,.66c1.03,.44,1.93,1.05,2.71,1.85s1.39,1.72,1.82,2.77c.44,1.05,.66,2.19,.66,3.41s-.22,2.33-.66,3.38-1.04,1.98-1.81,2.77-1.67,1.42-2.7,1.86c-1.03,.45-2.14,.67-3.32,.67Zm-.05-2.19c1.2,0,2.26-.28,3.19-.84s1.65-1.33,2.18-2.31c.53-.98,.79-2.1,.79-3.37,0-.94-.15-1.8-.45-2.59-.3-.79-.73-1.47-1.28-2.06s-1.2-1.03-1.95-1.35c-.75-.32-1.57-.47-2.48-.47-1.2,0-2.26,.28-3.17,.83-.92,.55-1.64,1.31-2.16,2.29-.53,.97-.79,2.09-.79,3.36,0,.94,.15,1.81,.45,2.61,.3,.8,.72,1.49,1.26,2.07,.54,.58,1.19,1.03,1.95,1.35,.75,.32,1.58,.49,2.47,.49Z"/>
          <path class="cls-1" d="M811.81,286.16c-1.22,0-2.34-.22-3.38-.67-1.04-.45-1.94-1.07-2.71-1.86s-1.37-1.72-1.79-2.77c-.42-1.05-.63-2.18-.63-3.38s.21-2.35,.63-3.41c.42-1.05,1.01-1.97,1.78-2.76,.76-.79,1.66-1.4,2.7-1.85,1.04-.45,2.16-.67,3.36-.67,1.35,0,2.52,.23,3.53,.68,1,.45,1.9,1.07,2.68,1.85l-1.58,1.58c-.54-.6-1.19-1.07-1.97-1.41-.78-.34-1.66-.51-2.65-.51-.88,0-1.69,.16-2.43,.47-.75,.32-1.4,.77-1.95,1.35s-.98,1.27-1.28,2.07c-.3,.79-.45,1.66-.45,2.6s.15,1.81,.45,2.6c.3,.79,.73,1.48,1.28,2.07s1.2,1.03,1.95,1.35c.75,.32,1.56,.47,2.46,.47,1.05,0,1.97-.17,2.75-.52s1.44-.82,1.97-1.42l1.58,1.58c-.78,.79-1.69,1.42-2.74,1.87s-2.23,.68-3.54,.68Z"/>
          <path class="cls-1" d="M823.59,285.91v-16.88h2.29v16.88h-2.29Z"/>
          <path class="cls-1" d="M831.3,285.91l6.93-16.88h1.65l6.88,16.88h-2.48l-5.69-14.28h.88l-5.72,14.28h-2.46Zm3.31-3.82v-1.99h8.88v1.99h-8.88Z"/>
          <path class="cls-1" d="M848.11,271.12v-2.09h13.74v2.09h-13.74Zm5.72,14.79v-16.4h2.31v16.4h-2.31Z"/>
          <path class="cls-1" d="M867.28,285.91v-16.88h2.29v16.88h-2.29Z"/>
          <path class="cls-1" d="M883.94,286.16c-1.2,0-2.32-.22-3.36-.67-1.04-.45-1.95-1.07-2.72-1.87-.78-.8-1.39-1.73-1.82-2.78s-.66-2.18-.66-3.38,.22-2.35,.66-3.39,1.04-1.97,1.81-2.76,1.67-1.41,2.7-1.85c1.03-.44,2.15-.66,3.34-.66s2.31,.22,3.34,.66c1.03,.44,1.93,1.05,2.71,1.85s1.39,1.72,1.82,2.77c.44,1.05,.66,2.19,.66,3.41s-.22,2.33-.66,3.38c-.44,1.05-1.04,1.98-1.81,2.77-.77,.79-1.67,1.42-2.7,1.86-1.03,.45-2.14,.67-3.32,.67Zm-.05-2.19c1.2,0,2.26-.28,3.19-.84s1.65-1.33,2.18-2.31c.53-.98,.79-2.1,.79-3.37,0-.94-.15-1.8-.45-2.59-.3-.79-.73-1.47-1.28-2.06s-1.2-1.03-1.95-1.35c-.75-.32-1.57-.47-2.48-.47-1.2,0-2.26,.28-3.17,.83-.92,.55-1.64,1.31-2.16,2.29-.53,.97-.79,2.09-.79,3.36,0,.94,.15,1.81,.45,2.61,.3,.8,.72,1.49,1.26,2.07,.54,.58,1.19,1.03,1.95,1.35,.75,.32,1.58,.49,2.47,.49Z"/>
          <path class="cls-1" d="M898.26,285.91v-16.88h1.61l.68,2.68v14.21h-2.29Zm11.68,0l-10.36-13.82,.29-3.07,10.39,13.82-.32,3.07Zm0,0l-.68-2.51v-14.38h2.29v16.88h-1.61Z"/>
        </g>
        <g>
          <g>
            <path class="cls-8" d="M826.31,206.83v-37.49c5.95,0,11.81-.51,17.55,.13,6.76,.75,10.18,6.6,8.01,12.79-.63,1.79-2.13,3.27-3.33,5.03,3.52,1.4,5.55,4.37,5.74,8.5,.27,5.69-3.36,10.37-9.43,10.92-6.02,.55-12.13,.12-18.54,.12Zm8.01-6.76c2.83,0,5.52,.23,8.16-.07,2.36-.27,3.67-2,3.69-4.42,.02-2.27-1.06-4.13-3.34-4.4-2.78-.33-5.63-.08-8.51-.08v8.97Zm.04-24.23v8.53c2.15,0,4.09,.12,6.01-.03,2.68-.21,4.15-1.79,4.18-4.18,.03-2.42-1.41-4.07-4.05-4.29-1.99-.17-4.01-.03-6.15-.03Z"/>
            <path class="cls-8" d="M777.39,169.22c5.63,0,11.04-.2,16.44,.06,5.49,.26,9.36,3.84,10.48,9.08,1.2,5.62-.86,10.35-5.72,13.12-.28,.16-.54,.34-1,.64,2.67,4.94,5.31,9.81,8.16,15.09-2.96,0-5.54,.1-8.09-.08-.59-.04-1.29-.96-1.65-1.63-1.68-3.13-3.29-6.29-4.88-9.47-1.62-3.25-1.61-3.26-5.74-2.45v13.46h-7.99v-37.82Zm8.06,17.43c2.69-.18,5.22-.11,7.65-.56,2.54-.47,3.4-2.53,3.38-4.94-.02-2.41-1.47-4.49-3.71-4.74-2.37-.26-4.8-.06-7.32-.06v10.31Z"/>
            <path class="cls-8" d="M978.67,192.74h-7.52v-6.38h15.34c0,4.68,.05,9.38-.06,14.07-.01,.59-.81,1.24-1.36,1.73-7.36,6.46-16.99,7.56-24.36,2.82-7.03-4.53-10.08-14.33-7.31-23.49,2.14-7.08,6.91-11.4,14.09-12.64,6.61-1.14,12.63,.29,17.17,5.73,.48,.58,.87,1.23,1.46,2.09-2.09,1.42-4.08,2.77-6.22,4.23-2.82-4.03-6.51-5.7-11.26-4.64-.08,.02-.17,.02-.25,.04-4.25,1.29-6.65,4.3-7.34,8.53-.87,5.32-.46,10.49,4.44,13.89,3.76,2.61,7.86,2.16,11.77,0,1.94-1.07,2-1.51,1.41-5.98Z"/>
            <path class="cls-8" d="M876.43,169.19c5.58,0,10.92-.2,16.23,.06,5.24,.25,9.37,4.05,10.38,8.94,1.19,5.73-.83,10.5-5.6,13.22-.29,.16-.57,.33-1.08,.63,2.56,4.96,5.1,9.87,7.84,15.18-2.87,0-5.3,.12-7.7-.08-.67-.06-1.48-.97-1.85-1.68-1.6-3.08-3.28-6.14-4.52-9.37-1.08-2.83-2.81-3.47-5.7-2.62v13.53h-8.01v-37.82Zm8.03,17.34c1.86,0,3.46,0,5.06,0,.51,0,1.02-.02,1.52-.11,2.66-.48,4.3-2.43,4.36-5.14,.05-2.48-1.49-4.69-3.84-4.93-2.31-.24-4.66-.05-7.09-.05v10.24Z"/>
            <path class="cls-8" d="M573.96,207.26c-3.27,0-5.89,.13-8.48-.08-.8-.06-1.74-.9-2.24-1.64-3.13-4.61-6.16-9.3-9.22-13.96-2.93,2.19-4.49,4.78-4.02,8.49,.28,2.23,.05,4.53,.05,6.99h-7.92v-37.8h7.87v15.38l.54,.19c2.96-3.63,6.21-7.06,8.8-10.93,2.6-3.89,5.76-5.57,10.33-4.77,.89,.16,1.83,.02,3.36,.02-4.74,5.65-9.16,10.91-13.71,16.34,4.78,7.11,9.52,14.16,14.63,21.77Z"/>
            <path class="cls-8" d="M501.16,169.2h7.96c0,1.17,0,2.23,0,3.29,.07,6.93-.03,13.88,.29,20.8,.21,4.52,3.21,6.98,7.71,7.03,4.91,.05,8.02-2.96,8.09-8.09,.09-6.77,.03-13.53,.04-20.3,0-.83,0-1.65,0-2.65h7.87c.06,.78,.16,1.52,.16,2.25,0,6.77,.06,13.54-.03,20.3-.15,11.26-8.4,17.88-19.5,15.75-7.48-1.43-12.04-5.99-12.51-13.55-.45-7.33-.18-14.71-.22-22.07,0-.83,.08-1.67,.13-2.76Z"/>
            <path class="cls-8" d="M604.77,207.09h-25.1v-37.82h24.7v6.81h-16.56v8.28h14.4v6.87h-14.41v8.68h16.98v7.18Z"/>
            <path class="cls-8" d="M753.38,191.37v8.66c2.85,0,5.62,0,8.38,0s5.54,0,8.47,0v7h-24.9v-37.73h24.47v6.84h-16.39v8.21h14.23v7.02h-14.26Z"/>
            <path class="cls-8" d="M692.73,177.04c-2.09,1.35-4.05,2.63-5.45,3.53-2.63-1.61-4.7-3.52-7.13-4.24-4.75-1.41-9.57,1.16-11.36,5.75-2.02,5.18-2.04,10.34,1.71,14.84,3.71,4.46,10.72,4.46,14.59,.18,.5-.56,.99-1.13,1.65-1.88,2.05,1.42,4.02,2.79,5.97,4.13-4.17,7.82-14.85,10.78-23.22,6.67-7.25-3.57-11.08-11.35-10.08-20.49,.91-8.37,6.14-14.56,13.94-16.51,7.93-1.98,15.65,1.1,19.38,8.02Z"/>
            <path class="cls-8" d="M483.88,176.26v30.8h-8.06v-30.76h-10.85v-7.01h29.82v6.98h-10.91Z"/>
            <path class="cls-8" d="M628.32,207.1h-8.01v-30.78h-10.83v-7.01h29.49v6.86h-10.65v30.93Z"/>
            <path class="cls-8" d="M723.18,199.95h15.96v7.11h-23.85v-37.73h7.89v30.62Z"/>
            <path class="cls-8" d="M909.4,169.25h7.76v30.77h15.73v7.03h-23.49v-37.8Z"/>
            <path class="cls-8" d="M653.07,169.32v37.7h-7.75v-37.7h7.75Z"/>
            <path class="cls-8" d="M1001.37,207.13h-7.72v-37.86h7.72v37.86Z"/>
            <path class="cls-8" d="M698.81,169.27h7.74v37.76h-7.74v-37.76Z"/>
            <path class="cls-8" d="M938.72,207.06v-37.75h7.65v37.75h-7.65Z"/>
            <path class="cls-8" d="M860.5,169.11h7.48v37.95h-7.48v-37.95Z"/>
            <path class="cls-8" d="M962.07,159.07c2.05,.02,4.15-.98,5.76,1.55,1.05,1.66,4.83,1.72,5.91,.08,1.68-2.55,3.81-1.68,5.97-1.59-.36,4.84-3.74,7.51-9.15,7.34-5.49-.17-8.37-2.63-8.49-7.38Z"/>
            <path class="cls-8" d="M706.63,162.2c.05,2.34-1.56,3.97-3.93,4-2.33,.03-3.95-1.41-4.05-3.61-.11-2.3,1.49-4.03,3.83-4.13,2.43-.1,4.11,1.41,4.16,3.73Z"/>
            <path class="cls-8" d="M997.4,166.2c-2.28-.03-3.89-1.56-3.92-3.73-.04-2.41,1.71-4.08,4.19-4.01,2.23,.07,3.77,1.65,3.79,3.89,.02,2.29-1.66,3.89-4.06,3.86Z"/>
            <path class="cls-8" d="M649.28,158.45c2.31,.02,3.98,1.76,3.91,4.07-.06,2.17-1.71,3.72-3.97,3.73-2.37,0-4.12-1.67-4.06-3.9,.06-2.28,1.79-3.92,4.13-3.89Z"/>
            <path class="cls-8" d="M946.64,162.44c-.04,2.26-1.8,3.87-4.17,3.82-2.28-.05-3.78-1.57-3.8-3.85-.03-2.35,1.58-3.94,3.98-3.94,2.35,0,4.02,1.66,3.99,3.98Z"/>
            <path class="cls-8" d="M526.98,162.32c-.04,2.29-1.75,3.93-4.05,3.9-2.36-.04-3.93-1.67-3.85-4.02,.08-2.31,1.74-3.81,4.14-3.73,2.28,.08,3.8,1.64,3.76,3.85Z"/>
            <path class="cls-8" d="M868.17,162.43c-.01,2.42-1.55,3.88-4.02,3.82-2.3-.06-3.82-1.56-3.84-3.81-.02-2.31,1.62-3.98,3.95-4,2.34-.02,3.92,1.59,3.91,3.98Z"/>
            <path class="cls-8" d="M511.21,158.46c2.27,.04,3.89,1.76,3.84,4.07-.06,2.26-1.78,3.79-4.17,3.7-2.25-.08-3.72-1.63-3.71-3.91,0-2.28,1.71-3.9,4.05-3.86Z"/>
          </g>
          <g>
            <path class="cls-4" d="M733.35,228.28c4.56-.06,8.21,3.41,8.27,7.85,.05,4.5-3.46,8.09-7.98,8.15-4.32,.06-7.87-3.44-7.98-7.87-.11-4.35,3.41-8.07,7.7-8.13Z"/>
            <rect class="cls-3" x="748.28" y="235.46" width="244.57" height="1.64"/>
            <rect class="cls-9" x="473.59" y="235.46" width="244.57" height="1.64"/>
          </g>
        </g>
      </g>
    </g>
  </g>
</svg>